<svg width="23" height="25" viewBox="0 0 23 25" fill="none" xmlns="http://www.w3.org/2000/svg">
<path d="M19.8445 0C21.3094 0 22.4891 1.18438 22.5586 2.57969V25L19.7711 22.632L18.2414 21.2406L16.5688 19.7836L17.2648 22.0789H2.64453C1.18359 22.0789 0 20.9719 0 19.4992V2.58438C0 1.18906 1.18438 0.0046875 2.64922 0.0046875H19.8367L19.8445 0ZM13.4719 5.92031H13.4391L13.2273 6.12812C15.3883 6.75469 16.4336 7.73125 16.4336 7.73125C15.0422 7.03516 13.7844 6.68516 12.5313 6.54297C11.6281 6.40469 10.7203 6.47813 9.95547 6.54297H9.74375C9.25547 6.54297 8.21406 6.75469 6.81797 7.31172C6.33359 7.52344 6.05313 7.66172 6.05313 7.66172C6.05313 7.66172 7.09453 6.61563 9.39766 6.05859L9.25547 5.92031C9.25547 5.92031 7.51406 5.85078 5.63437 7.24297C5.63437 7.24297 3.75469 10.5187 3.75469 14.5547C3.75469 14.5547 4.79609 16.3656 7.65313 16.4344C7.65313 16.4344 8.07188 15.8812 8.49141 15.393C6.88828 14.9047 6.26172 13.9281 6.26172 13.9281C6.26172 13.9281 6.40391 13.9977 6.61172 14.1359H6.67266C6.70547 14.1359 6.72188 14.1523 6.7375 14.1687V14.1766C6.75391 14.193 6.77031 14.2047 6.79844 14.2047C7.14453 14.3469 7.48594 14.4852 7.76719 14.6234C8.25547 14.8313 8.87813 15.0422 9.64297 15.1812C10.6117 15.3234 11.7219 15.3891 12.9875 15.1812C13.6102 15.0391 14.2367 14.9047 14.8633 14.6234C15.2664 14.4156 15.7664 14.2086 16.3156 13.8547C16.3156 13.8547 15.693 14.8312 14.0203 15.3195C14.3625 15.8039 14.8461 16.3609 14.8461 16.3609C17.7063 16.2961 18.8172 14.4852 18.8781 14.5625C18.8781 10.5305 16.9859 7.25078 16.9859 7.25078C15.2852 5.98516 13.6898 5.93672 13.4094 5.93672L13.4664 5.91641L13.4719 5.92031ZM13.6469 10.5187C14.3797 10.5187 14.9695 11.1414 14.9695 11.9062C14.9695 12.6797 14.3758 13.3016 13.6469 13.3016C12.9141 13.3016 12.3242 12.6789 12.3242 11.9141C12.3242 11.1406 12.918 10.5187 13.6469 10.5187ZM8.91484 10.5187C9.64297 10.5187 10.2336 11.1414 10.2336 11.9062C10.2336 12.6797 9.63984 13.3016 8.91094 13.3016C8.17813 13.3016 7.58438 12.6789 7.58438 11.9141C7.58438 11.1406 8.17813 10.5187 8.91094 10.5187H8.91484Z" fill="#B8C6F5"/>
</svg>
