<svg width="26" height="25" viewBox="0 0 26 25" fill="none" xmlns="http://www.w3.org/2000/svg">
<path d="M12.9805 0C9.58239 0 9.1589 0.0164083 7.82904 0.0726653C6.49372 0.138299 5.59048 0.345356 4.79351 0.654769C3.97153 0.976685 3.27144 1.40408 2.57995 2.09948C1.88377 2.79097 1.45247 3.49106 1.13524 4.31304C0.825824 5.11001 0.618767 6.01325 0.553134 7.34857C0.49297 8.67921 0.480469 9.10192 0.480469 12.5C0.480469 15.8981 0.496877 16.3216 0.553134 17.6514C0.618767 18.9828 0.825824 19.89 1.13524 20.687C1.45715 21.5089 1.88455 22.209 2.57995 22.9005C3.27144 23.5967 3.97153 24.028 4.79351 24.3452C5.59048 24.6507 6.49763 24.8617 7.82904 24.9273C9.15968 24.9875 9.58239 25 12.9805 25C16.3786 25 16.802 24.9836 18.1319 24.9273C19.4633 24.8617 20.3705 24.65 21.1674 24.3452C21.9894 24.0233 22.6895 23.5959 23.381 22.9005C24.0772 22.209 24.5085 21.5128 24.8257 20.687C25.1312 19.89 25.3422 18.9828 25.4078 17.6514C25.468 16.3208 25.4805 15.8981 25.4805 12.5C25.4805 9.10192 25.4641 8.67843 25.4078 7.34857C25.3422 6.01716 25.1304 5.10533 24.8257 4.31304C24.5038 3.49106 24.0764 2.79097 23.381 2.09948C22.6895 1.4033 21.9933 0.971996 21.1674 0.654769C20.3705 0.345356 19.4633 0.138299 18.1319 0.0726653C16.8013 0.0125016 16.3786 0 12.9805 0ZM12.9805 2.25028C16.3176 2.25028 16.7161 2.26669 18.035 2.32295C19.2516 2.37998 19.9141 2.58314 20.354 2.75503C20.9408 2.9824 21.351 3.25119 21.7949 3.6903C22.2301 4.12552 22.4988 4.54041 22.7262 5.1272C22.8981 5.5671 23.1013 6.22968 23.1583 7.44624C23.2146 8.76516 23.231 9.16443 23.231 12.5008C23.231 15.8371 23.2146 16.2364 23.1536 17.5553C23.088 18.7719 22.8848 19.4345 22.7137 19.8744C22.477 20.4612 22.2129 20.8714 21.7769 21.3152C21.337 21.7504 20.9182 22.0192 20.3361 22.2465C19.9016 22.4184 19.2297 22.6216 18.0084 22.6786C16.6825 22.7349 16.2918 22.7513 12.9461 22.7513C9.60036 22.7513 9.21047 22.7349 7.88296 22.6739C6.6664 22.6083 5.99522 22.4051 5.55532 22.234C4.9615 21.9973 4.55442 21.7332 4.11842 21.2972C3.67852 20.8573 3.3988 20.4385 3.18315 19.8564C3.00813 19.422 2.8081 18.75 2.74325 17.5288C2.69871 16.2184 2.67762 15.8121 2.67762 12.482C2.67762 9.15349 2.69871 8.74641 2.74325 7.41968C2.8081 6.19843 3.00813 5.52803 3.18315 5.09204C3.3988 4.49744 3.67931 4.09114 4.11842 3.65124C4.55363 3.21603 4.9615 2.93474 5.55532 2.7144C5.99522 2.54329 6.64999 2.34014 7.87124 2.27919C9.19718 2.23153 9.58786 2.21434 12.9289 2.21434L12.9805 2.25028ZM12.9805 6.08435C9.43237 6.08435 6.56326 8.95737 6.56326 12.5016C6.56326 16.0497 9.43628 18.9188 12.9805 18.9188C16.5286 18.9188 19.3977 16.0458 19.3977 12.5016C19.3977 8.95346 16.5247 6.08435 12.9805 6.08435ZM12.9805 16.6685C10.6771 16.6685 8.81354 14.805 8.81354 12.5016C8.81354 10.1981 10.6771 8.33464 12.9805 8.33464C15.2839 8.33464 17.1474 10.1981 17.1474 12.5016C17.1474 14.805 15.2839 16.6685 12.9805 16.6685ZM21.1565 5.82807C21.1565 6.65864 20.4806 7.32904 19.654 7.32904C18.8234 7.32904 18.153 6.65786 18.153 5.82807C18.153 5.00219 18.8281 4.33023 19.654 4.33023C20.4798 4.33023 21.1565 5.00219 21.1565 5.82807Z" fill="#B8C6F5"/>
</svg>
