<svg width="26" height="25" viewBox="0 0 26 25" fill="none" xmlns="http://www.w3.org/2000/svg">
<path d="M10.2337 14.9952C9.53773 14.9952 8.97886 14.4355 8.97886 13.7548C8.97886 13.0597 9.53853 12.5 10.2337 12.5C10.9192 12.5 11.474 13.0597 11.474 13.7548C11.474 14.4403 10.9143 14.9952 10.2337 14.9952ZM25.4805 12.5C25.4805 19.4056 19.8853 25 12.9805 25C6.07563 25 0.480469 19.4048 0.480469 12.5C0.480469 5.59436 6.07563 0 12.9805 0C19.8853 0 25.4805 5.59516 25.4805 12.5ZM18.8119 10.4234C18.3385 10.4234 17.92 10.6202 17.6119 10.9274C16.4829 10.146 14.9611 9.64194 13.2724 9.58629L14.149 5.63952L16.9418 6.26936C16.9418 6.95484 17.5014 7.50968 18.1813 7.50968C18.8772 7.50968 19.4361 6.94032 19.4361 6.25484C19.4361 5.56935 18.8764 5 18.1813 5C17.6926 5 17.274 5.29274 17.0676 5.69597L13.9829 5.01048C13.8313 4.97016 13.6756 5.08145 13.6353 5.23226L12.6724 9.5871C10.999 9.65806 9.49176 10.1565 8.36273 10.9379C8.05547 10.6153 7.6216 10.4242 7.14821 10.4242C5.38934 10.4242 4.81434 12.7879 6.4224 13.5895C6.36676 13.8419 6.33692 14.1032 6.33692 14.371C6.33692 17.0218 9.32079 19.1694 12.9901 19.1694C16.6748 19.1694 19.6587 17.0218 19.6587 14.371C19.6587 14.104 19.6281 13.8266 19.5627 13.5742C21.1401 12.7677 20.5603 10.4234 18.8119 10.4234ZM15.3393 16.2806C14.4224 17.1976 11.5039 17.1831 10.6216 16.2806C10.5111 16.1702 10.3143 16.1702 10.203 16.2806C10.0772 16.4065 10.0772 16.6032 10.203 16.7145C11.3522 17.8637 14.603 17.8637 15.7579 16.7145C15.8837 16.6032 15.8837 16.4073 15.7579 16.2806C15.6466 16.1702 15.4506 16.1702 15.3393 16.2806ZM15.7272 12.5C15.0418 12.5 14.4869 13.0597 14.4869 13.7548C14.4869 14.4403 15.0466 14.9952 15.7272 14.9952C16.4232 14.9952 16.9821 14.4355 16.9821 13.7548C16.9821 13.0597 16.4272 12.5 15.7272 12.5Z" fill="#B8C6F5"/>
</svg>
