<svg width="32" height="25" viewBox="0 0 32 25" fill="none" xmlns="http://www.w3.org/2000/svg">
<path d="M31.0328 2.97866C29.9015 3.47463 28.6904 3.81584 27.414 3.97059C28.7163 3.18916 29.7121 1.95309 30.1869 0.480584C28.9653 1.19185 27.6139 1.70704 26.1769 1.99827C25.0312 0.771818 23.3934 0 21.5758 0C18.0916 0 15.2677 2.82295 15.2677 6.30238C15.2677 6.80315 15.3282 7.28374 15.433 7.73933C10.1917 7.49423 5.54544 4.97597 2.43798 1.17166C1.89204 2.09823 1.58158 3.17474 1.58158 4.34641C1.58158 6.53883 2.6975 8.46117 4.38435 9.5915C3.35302 9.56171 2.38224 9.27624 1.5316 8.80623V8.88216C1.5316 11.9396 3.70384 14.4887 6.58735 15.0692C6.06159 15.2086 5.50027 15.2893 4.93029 15.2893C4.52564 15.2893 4.13925 15.2499 3.75382 15.1788C4.56505 17.6817 6.88723 19.504 9.6554 19.5588C7.50334 21.2457 4.77555 22.2511 1.83629 22.2511C1.33552 22.2511 0.835715 22.227 0.333984 22.1665C3.13771 23.9542 6.44702 25 10.0216 25C21.62 25 27.958 15.3931 27.958 7.07324C27.958 6.80796 27.958 6.53787 27.9378 6.26682C29.1748 5.38543 30.2456 4.26855 31.0914 3.00269L31.0328 2.97866Z" fill="#B8C6F5"/>
</svg>
