<svg width="37" height="25" viewBox="0 0 37 25" fill="none" xmlns="http://www.w3.org/2000/svg">
<path d="M35.5869 3.85599C35.162 2.34738 33.9855 1.1642 32.4702 0.745953C29.68 3.56614e-05 18.4633 3.58417e-05 18.4633 3.58417e-05C18.4633 3.58417e-05 7.26779 -0.0178574 4.44851 0.745953C2.94102 1.16532 1.75896 2.34738 1.33847 3.85599C0.809509 6.71553 0.546705 9.60973 0.559006 12.5174C0.553415 15.406 0.815101 18.2957 1.33847 21.1373C1.75896 22.6459 2.94102 23.8291 4.44851 24.2541C7.23871 25 18.4633 25 18.4633 25C18.4633 25 29.652 25 32.4702 24.2541C33.9855 23.8291 35.162 22.6471 35.5869 21.1373C36.1002 18.2957 36.3507 15.406 36.3328 12.5174C36.3507 9.60973 36.1058 6.71553 35.5869 3.85599ZM14.8802 17.8707V7.14049L24.217 12.5174L14.8802 17.8707Z" fill="#B8C6F5"/>
</svg>
